<svg width="116" height="116" viewBox="0 0 116 116" fill="none" xmlns="http://www.w3.org/2000/svg">
<circle cx="58" cy="58" r="53" fill="#0055A4" stroke="#F78880" stroke-width="10"/>
<path d="M79.6025 54.656C81.3945 54.656 82.8025 55.168 83.8265 56.192C84.9145 57.152 85.4585 58.496 85.4585 60.224V78.944C85.4585 81.504 85.2345 83.488 84.7865 84.896C84.4025 86.304 83.6985 87.424 82.6745 88.256C81.6505 89.088 80.1145 89.792 78.0665 90.368C75.5705 91.136 72.6905 91.744 69.4265 92.192C66.2265 92.64 63.1865 92.864 60.3065 92.864C53.1385 92.864 46.9305 91.488 41.6825 88.736C36.4345 85.92 32.4025 81.92 29.5865 76.736C26.7705 71.488 25.3625 65.28 25.3625 58.112C25.3625 51.072 26.7385 44.96 29.4905 39.776C32.3065 34.528 36.3065 30.496 41.4905 27.68C46.6745 24.864 52.7225 23.456 59.6345 23.456C68.5305 23.456 75.8905 25.76 81.7145 30.368C82.6745 31.136 83.3465 31.904 83.7305 32.672C84.1145 33.44 84.3065 34.4 84.3065 35.552C84.3065 37.216 83.8265 38.656 82.8665 39.872C81.9705 41.024 80.8825 41.6 79.6025 41.6C78.7705 41.6 78.0025 41.472 77.2985 41.216C76.6585 40.96 75.8585 40.544 74.8985 39.968C72.2105 38.304 69.7465 37.12 67.5065 36.416C65.2665 35.712 62.8025 35.36 60.1145 35.36C47.0585 35.36 40.5305 42.944 40.5305 58.112C40.5305 65.92 42.2265 71.744 45.6185 75.584C49.0105 79.424 54.1305 81.344 60.9785 81.344C64.6905 81.344 68.3705 80.864 72.0185 79.904V65.024H63.1865C61.3305 65.024 59.8905 64.576 58.8665 63.68C57.8425 62.784 57.3305 61.504 57.3305 59.84C57.3305 58.176 57.8425 56.896 58.8665 56C59.8905 55.104 61.3305 54.656 63.1865 54.656H79.6025Z" fill="#B1E5F2"/>
</svg>
