<?xml version="1.0" encoding="UTF-8"?>
<!DOCTYPE svg PUBLIC "-//W3C//DTD SVG 1.1//EN" "http://www.w3.org/Graphics/SVG/1.1/DTD/svg11.dtd">
<!-- Creator: CorelDRAW -->
<svg xmlns="http://www.w3.org/2000/svg" xml:space="preserve" width="64px" height="64px" shape-rendering="geometricPrecision" text-rendering="geometricPrecision" image-rendering="optimizeQuality" fill-rule="evenodd" clip-rule="evenodd"
viewBox="0 0 640 640"
 xmlns:xlink="http://www.w3.org/1999/xlink">
 <g id="Layer_x0020_1">
  <metadata id="CorelCorpID_0Corel-Layer"/>
  <path fill="#272635" fill-rule="nonzero" d="M254.743 158.01l0.0236223 0 0 0.129923c52.5715,0 101.174,16.7837 140.73,45.2604l49.3825 -50.4573 -74.1978 -69.0363 255.558 -83.9065 -65.9536 260.779 -73.0048 -69.4024 -48.1187 52.5125c35.2209,41.8588 56.4456,95.9657 56.4574,155.092l0.118112 0 0 0.0236223 0 0.0236223 -0.118112 0c-0.0118112,66.6032 -26.9413,126.852 -70.4772,170.388 -43.536,43.5242 -103.761,70.4536 -170.364,70.4654l0 0.118112 -0.0354335 0 -0.0118112 0 0 -0.118112c-66.615,0 -126.852,-26.9413 -170.388,-70.4772 -43.5242,-43.536 -70.4536,-103.761 -70.4654,-170.364l-0.118112 0 0 -0.0354335 0 -0.0118112 0.118112 0c0,-66.615 26.9413,-126.852 70.4772,-170.388 43.536,-43.5242 103.761,-70.4654 170.364,-70.4654l0 -0.129923 0.0236223 0zm0.0236223 62.0204l0 0.129923 -0.0236223 0 -0.0236223 0 0 -0.129923c-49.288,0.0118112 -93.9933,20.079 -126.427,52.5125 -32.4453,32.4335 -52.5125,77.1624 -52.5125,126.45l0.118112 0 0 0.0118112 0 0.0354335 -0.118112 0c0,49.2762 20.0672,93.9933 52.5006,126.427 32.4335,32.4453 77.1624,52.5125 126.45,52.5125l0 -0.118112 0.0118112 0 0.0354335 0 0 0.118112c49.2762,0 93.9933,-20.0672 126.427,-52.5006 32.4453,-32.4453 52.5125,-77.1624 52.5125,-126.45l-0.118112 0 0 -0.0236223 0 -0.0236223 0.118112 0c0,-49.288 -20.0672,-93.9933 -52.5006,-126.427 -32.4453,-32.4453 -77.1624,-52.5125 -126.45,-52.5243z"/>
 </g>
</svg>
