<?xml version="1.0" encoding="UTF-8"?>
<!DOCTYPE svg PUBLIC "-//W3C//DTD SVG 1.1//EN" "http://www.w3.org/Graphics/SVG/1.1/DTD/svg11.dtd">
<!-- Creator: CorelDRAW -->
<svg xmlns="http://www.w3.org/2000/svg" xml:space="preserve" width="64px" height="64px" shape-rendering="geometricPrecision" text-rendering="geometricPrecision" image-rendering="optimizeQuality" fill-rule="evenodd" clip-rule="evenodd"
viewBox="0 0 640 640"
 xmlns:xlink="http://www.w3.org/1999/xlink">
 <g id="Layer_x0020_1">
  <metadata id="CorelCorpID_0Corel-Layer"/>
  <path fill="#272635" fill-rule="nonzero" d="M320 0l0.0118112 0 0 0.118112c120.391,0 220.94,100.159 220.963,220.94l0.106301 0 0 0.0236223 0 0.0118112 -0.106301 0c-0.0118112,61.111 -24.7208,116.375 -64.6661,156.309 -33.6146,33.6264 -78.1073,56.4456 -127.797,62.8354l0 69.0717 97.9264 0c15.7443,0 28.5004,12.7679 28.5004,28.5004 0,15.7443 -12.7561,28.5122 -28.5004,28.5122l-97.9264 0 0 50.5872c0,12.7561 -12.7679,23.0908 -28.5122,23.0908 -15.7443,0 -28.5122,-10.3348 -28.5122,-23.0908l0 -50.5872 -97.9264 0c-15.7443,0 -28.5004,-12.7679 -28.5004,-28.5122 0,-15.7325 12.7561,-28.5004 28.5004,-28.5004l97.9264 0 0 -69.0717c-49.7014,-6.38984 -94.1941,-29.209 -127.809,-62.8354 -39.9454,-39.9336 -64.6425,-95.1862 -64.6543,-156.285l-0.106301 0 0 -0.0354335 0 -0.0118112 0.106301 0c0,-61.111 24.7208,-116.375 64.6543,-156.309 39.9336,-39.9336 95.198,-64.6425 156.285,-64.6425l0 -0.118112 0.0354335 0zm0.0118112 56.8944l0 0.118112 -0.0118112 0 -0.0354335 0 0 -0.118112c-45.2013,0.0118112 -86.2215,18.4254 -115.974,48.1778 -29.7641,29.7523 -48.1778,70.7843 -48.1778,115.997l0.106301 0 0 0.0118112 0 0.0354335 -0.106301 0c0,45.2013 18.4136,86.2215 48.1659,115.974 29.7641,29.7641 70.7843,48.1778 116.009,48.1778l0 -0.106301 0.0118112 0 0.0236223 0 0 0.106301c45.2132,0 86.2333,-18.4136 115.986,-48.1659 29.7641,-29.7641 48.1778,-70.7843 48.1778,-116.009l-0.118112 0 0 -0.0118112 0 -0.0236223 0.118112 0c-0.0118112,-45.2132 -18.4136,-86.2215 -48.1659,-115.986 -29.7641,-29.7523 -70.7843,-48.1659 -116.009,-48.1778z"/>
 </g>
</svg>
