<?xml version="1.0" encoding="UTF-8"?>
<!DOCTYPE svg PUBLIC "-//W3C//DTD SVG 1.1//EN" "http://www.w3.org/Graphics/SVG/1.1/DTD/svg11.dtd">
<!-- Creator: CorelDRAW -->
<svg xmlns="http://www.w3.org/2000/svg" xml:space="preserve" width="64px" height="64px" shape-rendering="geometricPrecision" text-rendering="geometricPrecision" image-rendering="optimizeQuality" fill-rule="evenodd" clip-rule="evenodd"
viewBox="0 0 640 640"
 xmlns:xlink="http://www.w3.org/1999/xlink">
 <g id="Layer_x0020_1">
  <metadata id="CorelCorpID_0Corel-Layer"/>
  <path fill="#272635" d="M447.726 153.947c23.4452,-1.61813 48.6384,2.1142 64.2173,11.2324 17.7404,10.382 28.2523,28.5358 28.2523,57.3432l0 25.1932c0,11.3269 -0.40158,11.634 3.6969,17.5632 3.11815,4.51187 3.82682,5.05518 4.8662,10.5828 1.38191,7.21662 1.4764,14.5986 1.5827,22.1459 0.165356,11.7639 -4.31108,15.1655 -10.2993,24.6972l-25.4531 40.5832c-7.88986,12.6498 -15.1301,20.3861 -11.9765,36.4138 7.00402,35.5989 108.923,55.6306 137.399,68.304l0 67.4182 -82.8435 0c0,-12.7324 4.67722,-75.9104 -2.36223,-81.1073 -85.4892,-63.0598 -198.628,-27.9925 -112.194,-162.699 6.85048,-10.9253 7.28749,-15.5907 11.7994,-28.2996 8.30325,-23.3625 7.25206,-72.804 -6.68512,-109.371zm-255.452 0c-23.4452,-1.61813 -48.6384,2.1142 -64.2173,11.2324 -17.7404,10.382 -28.2523,28.5358 -28.2523,57.3432l0 25.1932c0,11.3269 0.40158,11.634 -3.6969,17.5632 -3.11815,4.51187 -3.82682,5.05518 -4.8662,10.5828 -1.38191,7.21662 -1.4764,14.5986 -1.5827,22.1459 -0.165356,11.7639 4.31108,15.1655 10.2993,24.6972l25.4531 40.5832c7.88986,12.6498 15.1301,20.3861 11.9765,36.4138 -7.00402,35.5989 -108.923,55.6306 -137.399,68.304l0 67.4182 82.8435 0c0,-12.7324 -4.67722,-75.9104 2.36223,-81.1073 85.4892,-63.0598 198.628,-27.9925 112.194,-162.699 -6.85048,-10.9253 -7.28749,-15.5907 -11.7994,-28.2996 -8.30325,-23.3625 -7.25206,-72.804 6.68512,-109.371zm-87.8279 381.489l0.0118112 -67.1583c32.1264,-14.2915 157.844,-45.8273 165.758,-86.0089 3.55516,-18.0711 -4.61817,-26.8114 -13.5238,-41.0792l-28.7248 -45.7919c-6.74418,-10.76 -11.7994,-14.5986 -11.6222,-27.8744 0.106301,-7.46466 0.212601,-14.823 1.28742,-22.016 1.3701,-9.17728 2.50397,-9.46075 7.2993,-16.8545 3.23626,-4.96069 2.87011,-6.43709 2.87011,-17.8703l0 -28.4295c0,-32.8587 12.1064,-53.4101 32.4925,-65.0441 29.8704,-17.0553 90.4263,-17.0435 120.131,0.342524 20.0081,11.7167 31.8665,32.2091 31.8665,64.7016l0 28.4295c0,12.7915 -0.448824,13.134 4.16934,19.8191 3.51973,5.09061 4.31108,5.70479 5.504,11.9293 1.54726,8.14971 1.66537,16.4884 1.77168,24.9924 0.188979,13.2758 -4.85439,17.1144 -11.6104,27.8744l-28.7248 45.7919c-8.90562,14.2679 -17.079,23.0082 -13.512,41.0792 7.90167,40.1816 122.895,62.7764 155.022,77.0679l0 76.0876 -420.466 0.0118112z"/>
 </g>
</svg>
